<svg xmlns="http://www.w3.org/2000/svg" viewBox="0 0 64 64" role="img" aria-label="FSAI favicon">
  <defs>
    <linearGradient id="f-icon-flame" x1="0" x2="1">
      <stop offset="0%" stop-color="#ffe07a"/>
      <stop offset="35%" stop-color="#ffc92f"/>
      <stop offset="70%" stop-color="#ff8d1f"/>
      <stop offset="100%" stop-color="#ef4438"/>
    </linearGradient>
  </defs>
  <rect width="64" height="64" rx="32" fill="#f5f5f4"/>
  <path d="M32 8 L18 42 L46 42 Z" fill="none" stroke="#3a3a3a" stroke-width="2.2" stroke-linejoin="round"/>
  <path d="M32 12 L22 38 L42 38 Z" fill="none" stroke="#3a3a3a" stroke-width="1.6" opacity="0.9"/>
  <rect x="15" y="18" width="34" height="16" fill="#ef4438" stroke="#3a3a3a" stroke-width="1.8"/>
  <rect x="18" y="21" width="28" height="10" fill="none" stroke="#3a3a3a" stroke-width="1.4"/>
  <path d="M32 23 C35 17 39 15 45 17 C49 18 52 21 52 26 C53 31 51 35 47 38 C43 41 39 42 35 41 C33 38 31 34 32 23 Z" fill="url(#f-icon-flame)"/>
  <circle cx="32" cy="30" r="8" fill="none" stroke="#3a3a3a" stroke-width="1.5" opacity="0.9"/>
  <path d="M32 39 C30 37 26 35 23 36 C21 37 20 39 19 41 L45 41 C44 39 43 37 41 36 C38 35 34 37 32 39 Z" fill="#1e9d63"/>
</svg>
